# xmcd CD database file
#
# Track frame offsets:
#	150
#	9630
#	27778
#	47108
#	65390
#	85478
#	104060
#	122220
#	141198
#	150765
#	169755
#	189160
#	209978
#	229020
#	281535
#
# Disc length: 4797 seconds
#
# Revision: 6
# Processed by: cddbd v1.5.2PL0 Copyright (c) Steve Scherf et al.
# Submitted via: CDex 1.70beta3
#
DISCID=d012bb0f
DTITLE=Dragon Ash - INDEPENDIENTE
DYEAR=2007
DGENRE=Rock
TTITLE0=Independiente(Intro)
TTITLE1=Develop the music
TTITLE2=stir
TTITLE3=Fly
TTITLE4=Ivory
TTITLE5=Libertad de fiesta
TTITLE6=El Alma feat.SHINJI TAKEDA
TTITLE7=Rainy
TTITLE8=Step snow(interlude)
TTITLE9=Samba`n'bass
TTITLE10=Luz del sol feat.大蔵 from ケツメイシ
TTITLE11=few lights till night
TTITLE12=Beautiful
TTITLE13=夢で逢えたら
TTITLE14=Sakuri Makori(Concert Ver.)
EXTD=夠䅅㩒㈠〰 YEAR: 2007
EXTT0=
EXTT1=
EXTT2=
EXTT3=
EXTT4=
EXTT5=
EXTT6=
EXTT7=
EXTT8=
EXTT9=
EXTT10=
EXTT11=
EXTT12=
EXTT13=
EXTT14=
PLAYORDER=
